<?xml version="1.0" encoding="UTF-8"?>
<svg xmlns="http://www.w3.org/2000/svg" viewBox="0 0 16 16" fill="none">
    <path d="M3.75167 12.8713C3.86004 12.9504 4.04124 13.187 3.98973 13.3356L3.14688 14.8925C2.79144 15.3854 2.25583 15.7196 1.69299 15.3309C0.956469 14.8224 1.31312 14.0562 1.68906 13.3698L1.75739 13.246C1.88217 13.0208 2.00186 12.8068 2.07669 12.6164C2.65731 12.539 3.24774 12.504 3.75167 12.8713ZM9.48485 4.59673C9.66194 4.99549 9.92838 5.35079 10.1358 5.72692C10.8128 6.95542 11.4399 8.27098 12.1368 9.5135C12.2032 9.63181 12.3692 9.75982 12.3694 9.96842C12.455 10.0463 13.9694 9.96878 14.7615 9.96324L14.9144 9.9632C15.032 9.96414 15.1238 9.96769 15.1786 9.97501C15.638 10.0363 15.9933 10.5449 15.9999 11.0239C16.0036 11.2881 15.8809 11.6259 15.6972 11.8106C15.6694 11.8387 15.3134 12.0692 15.2896 12.0692H13.612C13.5453 12.2797 13.6873 12.2886 13.719 12.3572C13.9337 12.8206 14.1942 13.2058 14.4114 13.6502C14.4879 13.8066 14.6927 14.2759 14.6982 14.4311C14.702 14.5415 14.5341 15.0371 14.4659 15.1303C14.3865 15.2389 14.0601 15.4573 13.9275 15.4772C13.7472 15.5042 13.2223 15.4457 13.0951 15.3157C13.0308 15.2501 12.7245 14.8034 12.6657 14.7063C11.8409 13.3447 11.1169 11.8207 10.3515 10.4164C10.2183 10.1719 10.0722 9.92847 9.92348 9.68385L9.73166 9.36852L9.60457 9.15709C8.99471 8.13225 8.46559 7.06119 8.74537 5.7911C8.7971 5.55604 9.1334 4.80521 9.31482 4.65684C9.36873 4.61278 9.41397 4.58751 9.48485 4.59673ZM7.27375 0.727844C7.31711 0.764133 7.35728 0.804139 7.39381 0.847415C7.49509 0.967413 7.55158 1.03668 7.56328 1.05523C7.67288 1.22873 7.61025 1.12958 7.76771 1.40845L7.81641 1.49437C7.85291 1.55855 7.89786 1.63718 7.95362 1.73417L8.09505 1.68902C8.1698 1.52912 8.20718 1.44917 8.20718 1.44917C8.33482 1.16656 8.4313 0.977556 8.49664 0.882156C8.87259 0.332988 9.94837 0.402203 10.2136 1.03172C10.3381 1.32738 10.3633 1.84003 10.2409 2.13641C10.1288 2.40788 9.69823 3.06398 9.51031 3.41544C8.46838 5.36411 7.28935 7.34524 6.2832 9.25164C6.1624 9.4806 6.02075 9.73471 5.93494 9.97804H9.20478C9.25709 9.98869 9.65321 10.2416 9.72524 10.2992C10.1693 10.6543 10.4896 11.5691 10.1026 12.0699L0.786131 12.0717C0.673425 12.0569 0.539522 11.9843 0.441289 11.9243C0.091547 11.7103 -0.0758597 11.0734 0.0328578 10.6778C0.0493819 10.6174 0.393426 10.1454 0.467158 10.1057C0.523682 10.0753 0.779294 9.98343 0.842541 9.97504C1.63741 9.86931 2.67262 10.0896 3.4643 9.98151C3.52743 9.97289 3.59364 9.98989 3.63033 9.91409L5.03192 7.27986L5.89403 5.72049C6.14463 5.22125 6.41346 4.73184 6.63625 4.26219C6.64543 4.24279 6.65971 4.2261 6.67581 4.20932L6.70947 4.1748C6.7607 4.12035 6.80869 4.04826 6.76502 3.88282C6.72673 3.73793 6.3387 3.0853 6.23386 2.88555L6.11283 2.67855C5.83863 2.14924 5.43345 1.50503 5.85018 0.920157L5.89802 0.857727C6.24239 0.438286 6.85833 0.380135 7.27375 0.727844Z" id="base"></path>
</svg>