<svg viewBox="0 0 16 16" fill="none" xmlns="http://www.w3.org/2000/svg">
    <g id="base">
        <path d="M9.29297 1.29295C9.68349 0.90243 10.3165 0.90243 10.707 1.29295C11.0975 1.68348 11.0975 2.3165 10.707 2.70702L10.4141 2.99999H11.5C13.9853 2.99999 16 5.0147 16 7.49999C16 9.98523 13.9853 12 11.5 12C10.9477 12 10.5 11.5522 10.5 11C10.5 10.4477 10.9477 9.99999 11.5 9.99999C12.8807 9.99998 14 8.88066 14 7.49999C14 6.11927 12.8807 4.99999 11.5 4.99999H10.4141L10.707 5.29295C11.0975 5.68348 11.0975 6.3165 10.707 6.70702C10.3165 7.09749 9.68348 7.09749 9.29297 6.70702L7.29297 4.70702C7.10545 4.5195 7.00002 4.26517 7 3.99999C7 3.73479 7.10546 3.48049 7.29297 3.29295L9.29297 1.29295Z"/>
        <path d="M4.5 3.99999C5.05229 3.99999 5.5 4.4477 5.5 4.99999C5.49996 5.55224 5.05226 5.99999 4.5 5.99999C3.11929 5.99999 2 7.11927 2 8.49999C2.00004 9.88066 3.11931 11 4.5 11H5.58594L5.29297 10.707C4.90246 10.3165 4.90248 9.68348 5.29297 9.29295C5.68349 8.90243 6.31651 8.90243 6.70703 9.29295L8.70703 11.293C8.89454 11.4805 9 11.7348 9 12C8.99998 12.2652 8.89455 12.5195 8.70703 12.707L6.70703 14.707C6.31652 15.0975 5.68348 15.0975 5.29297 14.707C4.90246 14.3165 4.90248 13.6835 5.29297 13.293L5.58594 13H4.5C2.01474 13 4.14895e-05 10.9852 0 8.49999C0 6.0147 2.01472 3.99999 4.5 3.99999Z"/>
    </g>
</svg>
