<svg width="16" height="16" viewBox="0 0 16 16" fill="none" xmlns="http://www.w3.org/2000/svg">
    <g id="base">
<path d="M12.4004 3.20015C12.7034 2.97299 13.1085 2.93606 13.4473 3.10542C13.786 3.27481 14 3.62118 14 3.99995V12C14 12.5522 13.5523 13 13 13H3C2.44772 13 2 12.5522 2 12V7.99995C2.00001 7.68521 2.1486 7.38899 2.40039 7.20015L6.40039 4.20015L6.47656 4.14839C6.8671 3.90794 7.37711 3.96302 7.70703 4.29292L9.09375 5.67964L12.4004 3.20015ZM9.59961 7.79976C9.2015 8.09824 8.64482 8.05884 8.29297 7.70698L6.90527 6.31929L4 8.49897V11H12V5.99898L9.59961 7.79976Z"/>
    </g>
</svg>