<svg width="16" height="16" viewBox="0 0 16 16" fill="none" xmlns="http://www.w3.org/2000/svg">
    <g id="base">
<path d="M13 11.0001C13.5523 11.0001 14 11.4478 14 12.0001C14 12.5523 13.5523 13.0001 13 13.0001H3C2.44772 13.0001 2 12.5523 2 12.0001C2 11.4478 2.44772 11.0001 3 11.0001H13Z"/>
<path d="M4 5C4.55228 5 5 5.44772 5 6C5 6.55228 4.55228 7 4 7C3.44772 7 3 6.55228 3 6C3 5.44772 3.44772 5 4 5Z"/>
<path d="M8 3.5C8.55228 3.5 9 3.94772 9 4.5V6C9 6.55228 8.55228 7 8 7C7.44772 7 7 6.55228 7 6V4.5C7 3.94772 7.44772 3.5 8 3.5Z"/>
<path d="M12 2C12.5523 2 13 2.44772 13 3V6C13 6.55228 12.5523 7 12 7C11.4477 7 11 6.55228 11 6V3C11 2.44772 11.4477 2 12 2Z"/>
    </g>
</svg>