<svg width="16" height="16" viewBox="0 0 16 16" fill="none" xmlns="http://www.w3.org/2000/svg">
    <g id="base">
        <path d="M13 11C13.5523 11 14 11.4477 14 12C14 12.5523 13.5523 13 13 13H3C2.44772 13 2 12.5523 2 12C2 11.4477 2.44772 11 3 11H13Z"/>
        <path d="M6 7C6.55228 7 7 7.44772 7 8C7 8.55228 6.55228 9 6 9H3C2.44772 9 2 8.55228 2 8C2 7.44772 2.44772 7 3 7H6Z"/>
        <path d="M13 7C13.5523 7 14 7.44772 14 8C14 8.55228 13.5523 9 13 9H10C9.44772 9 9 8.55228 9 8C9 7.44772 9.44772 7 10 7H13Z"/>
        <path d="M4 3C4.55228 3 5 3.44772 5 4C5 4.55228 4.55228 5 4 5H3C2.44772 5 2 4.55228 2 4C2 3.44772 2.44772 3 3 3H4Z"/>
        <path d="M8.5 3C9.05228 3 9.5 3.44772 9.5 4C9.5 4.55228 9.05228 5 8.5 5H7.5C6.94772 5 6.5 4.55228 6.5 4C6.5 3.44772 6.94772 3 7.5 3H8.5Z"/>
        <path d="M13 3C13.5523 3 14 3.44772 14 4C14 4.55228 13.5523 5 13 5H12C11.4477 5 11 4.55228 11 4C11 3.44772 11.4477 3 12 3H13Z"/>
    </g>
</svg>