<svg width="16" height="16" viewBox="0 0 16 16" fill="none" xmlns="http://www.w3.org/2000/svg">
    <g id="base">
<path d="M8.49902 4.03125C8.85273 4.07573 9.19952 4.16772 9.53027 4.30469C10.0156 4.50571 10.4567 4.80044 10.8281 5.17188C11.1996 5.54331 11.4943 5.98442 11.6953 6.46973C11.8323 6.80048 11.9243 7.14727 11.9688 7.50098C12.0032 7.77496 11.7761 8 11.5 8H8.5C8.22386 8 8 7.77614 8 7.5V4.5C8 4.22386 8.22504 3.99682 8.49902 4.03125Z"/>
<path fill-rule="evenodd" clip-rule="evenodd" d="M8 1C11.866 1 15 4.13401 15 8C15 11.866 11.866 15 8 15C4.13401 15 1 11.866 1 8C1 4.13401 4.13401 1 8 1ZM8 3C5.23858 3 3 5.23858 3 8C3 10.7614 5.23858 13 8 13C10.7614 13 13 10.7614 13 8C13 5.23858 10.7614 3 8 3Z"/>
    </g>
</svg>