<svg viewBox="0 0 16 16" fill="none" xmlns="http://www.w3.org/2000/svg">
    <path id="base" fill-rule="evenodd" clip-rule="evenodd" d="M16 9.99997C16 10.5523 15.5523 11 15 11H12V13H10C7.57936 13 5.56104 11.2797 5.09961 8.99509C5.06685 8.99833 5.03362 8.99997 5 8.99997H4.75C4.33579 8.99997 4 9.33576 4 9.74997C4 11.2688 2.76878 12.5 1.25 12.5H1C0.447716 12.5 6.75241e-07 12.0523 6.99382e-07 11.5C9.81225e-07 10.9477 0.447716 10.5 1 10.5H1.25C1.66421 10.5 2 10.1642 2 9.74997C2 8.23119 3.23122 6.99997 4.75 6.99997H5C5.03358 6.99997 5.06688 7.00064 5.09961 7.00388C5.5614 4.71973 7.57969 2.99997 10 2.99997L12 2.99997V4.99997L15 4.99997C15.5523 4.99997 16 5.44769 16 5.99997C16 6.55226 15.5523 6.99997 15 6.99997H12V8.99997H15C15.5523 8.99997 16 9.44769 16 9.99997ZM10 4.99997C8.34315 4.99997 7 6.34312 7 7.99997C7 9.65682 8.34315 11 10 11V4.99997Z"/>
</svg>
