<svg viewBox="0 0 16 16" fill="none" xmlns="http://www.w3.org/2000/svg">
    <path id="base" fill-rule="evenodd" clip-rule="evenodd" d="M8 1C9.65685 1 11 2.34315 11 4V5H12C13.6569 5 15 6.34315 15 8V12C15 13.6569 13.6569 15 12 15H8C6.34315 15 5 13.6569 5 12V11H4C2.34315 11 1 9.65685 1 8V4C1 2.34315 2.34315 1 4 1H8ZM8 7C7.44772 7 7 7.44772 7 8V12C7 12.5523 7.44772 13 8 13H12C12.5523 13 13 12.5523 13 12V8C13 7.44772 12.5523 7 12 7H8ZM4 3C3.44772 3 3 3.44772 3 4V8C3 8.55228 3.44772 9 4 9H5V8C5 6.34315 6.34315 5 8 5H9V4C9 3.44772 8.55228 3 8 3H4Z"/>
</svg>
