<svg viewBox="0 0 16 16" fill="none" xmlns="http://www.w3.org/2000/svg">
    <g id="base">
        <path d="M7.99972 1.5C8.55201 1.5 8.99972 1.94772 8.99972 2.5V3C8.99972 3.04139 8.99582 3.082 8.99093 3.12207C9.08536 3.14575 9.17892 3.17255 9.27121 3.20312C9.88223 3.40565 10.4372 3.75937 10.8454 4.24805C11.2569 4.74068 11.4997 5.34995 11.4997 6H9.49972C9.49972 5.85903 9.44895 5.6953 9.31125 5.53027C9.17019 5.36143 8.94447 5.20177 8.6423 5.10156C8.34062 5.00163 7.99886 4.97382 7.66867 5.02637C7.33817 5.07908 7.05751 5.20514 6.85617 5.36621C6.65637 5.52612 6.55547 5.70198 6.51828 5.85156C6.4825 5.99591 6.49694 6.14935 6.57785 6.30566C6.66201 6.46821 6.8247 6.64375 7.08175 6.78125C7.33898 6.91875 7.65953 6.99996 7.99972 7L8.24289 7.00684C8.80889 7.04025 9.36575 7.19088 9.86007 7.45508C10.4248 7.75696 10.9027 8.20644 11.197 8.77441C11.4944 9.3488 11.5796 10.0004 11.4226 10.6318C11.2668 11.258 10.8915 11.7959 10.3923 12.1953C9.98784 12.5188 9.50806 12.7452 8.99972 12.874V13.5C8.99972 14.0523 8.55201 14.5 7.99972 14.5C7.44754 14.4999 6.99972 14.0522 6.99972 13.5V12.875C6.90842 12.8519 6.81753 12.8265 6.72824 12.7969C6.11726 12.5943 5.56221 12.2406 5.15402 11.752C4.74262 11.2593 4.49972 10.65 4.49972 10H6.49972C6.49972 10.1409 6.55057 10.3047 6.6882 10.4697C6.82922 10.6386 7.05502 10.7982 7.35715 10.8984C7.6588 10.9984 8.00058 11.0261 8.33078 10.9736C8.66129 10.921 8.9419 10.7948 9.14328 10.6338C9.34315 10.4739 9.44396 10.298 9.48117 10.1484C9.51697 10.004 9.50255 9.8507 9.4216 9.69434C9.3374 9.53178 9.17479 9.35624 8.91769 9.21875C8.72475 9.11565 8.49639 9.04392 8.2507 9.01465L7.99972 9C7.35118 8.99997 6.70427 8.84688 6.13937 8.54492C5.57467 8.24303 5.09668 7.79355 4.80246 7.22559C4.5051 6.65124 4.41991 5.99953 4.57687 5.36816C4.73261 4.74204 5.10796 4.20408 5.60715 3.80469C6.0139 3.4793 6.49695 3.25144 7.00851 3.12305C7.00355 3.08268 6.99972 3.0417 6.99972 3V2.5C6.99972 1.94779 7.44754 1.50012 7.99972 1.5Z"/>
    </g>
</svg>
