<svg viewBox="0 0 16 16" fill="none" xmlns="http://www.w3.org/2000/svg">
    <g id="base">
        <path d="M12.2929 3.29295C12.6835 2.90243 13.3165 2.90243 13.707 3.29295C14.0974 3.68348 14.0975 4.31652 13.707 4.70702L10.414 7.99999L13.707 11.293C14.0974 11.6835 14.0975 12.3165 13.707 12.707C13.3165 13.0975 12.6835 13.0975 12.2929 12.707L8.29977 8.71385L8.23043 8.63768C7.92841 8.26743 7.92839 7.73258 8.23043 7.36229L8.29977 7.28612L12.2929 3.29295Z"/>
        <path d="M6.29293 3.29295C6.68346 2.90243 7.31647 2.90243 7.70699 3.29295C8.09745 3.68348 8.0975 4.31652 7.70699 4.70702L4.41403 7.99999L7.70699 11.293C8.09745 11.6835 8.0975 12.3165 7.70699 12.707C7.31649 13.0975 6.68346 13.0975 6.29293 12.707L2.29977 8.71385L2.23043 8.63768C1.92841 8.26743 1.92839 7.73258 2.23043 7.36229L2.29977 7.28612L6.29293 3.29295Z"/>
    </g>
</svg>
