<svg viewBox="0 0 16 16" fill="none" xmlns="http://www.w3.org/2000/svg">
    <g id="base">
        <path fill-rule="evenodd" clip-rule="evenodd" d="M8 3.5C10.3121 3.5 12.0367 4.51585 13.1582 5.49707C13.719 5.98776 14.1396 6.47746 14.4209 6.84668C14.5619 7.03179 14.6688 7.18894 14.7432 7.30273C14.7804 7.35969 14.8093 7.40638 14.8301 7.44043C14.8404 7.45728 14.8492 7.47082 14.8555 7.48145C14.8585 7.48665 14.8612 7.4915 14.8633 7.49512C14.8643 7.49686 14.8654 7.49864 14.8662 7.5L14.8672 7.50195L14.8682 7.50293C14.8684 7.50334 14.8629 7.50692 14 8C14.8629 8.49308 14.8684 8.49666 14.8682 8.49707L14.8672 8.49805L14.8662 8.5C14.8654 8.50136 14.8643 8.50314 14.8633 8.50488C14.8612 8.5085 14.8585 8.51335 14.8555 8.51855C14.8492 8.52918 14.8404 8.54272 14.8301 8.55957C14.8093 8.59362 14.7804 8.64031 14.7432 8.69727C14.6688 8.81106 14.5619 8.96821 14.4209 9.15332C14.1396 9.52254 13.719 10.0122 13.1582 10.5029C12.0367 11.4842 10.3121 12.5 8 12.5C5.68789 12.5 3.96331 11.4842 2.8418 10.5029C2.281 10.0122 1.86041 9.52254 1.5791 9.15332C1.43807 8.96821 1.33116 8.81106 1.25684 8.69727C1.21964 8.64031 1.19068 8.59362 1.16992 8.55957C1.15965 8.54272 1.1508 8.52918 1.14453 8.51855C1.14146 8.51335 1.13882 8.5085 1.13672 8.50488C1.13571 8.50314 1.13457 8.50136 1.13379 8.5L1.13281 8.49805L1.13184 8.49707C1.13165 8.49666 1.13708 8.4931 2 8C1.13708 7.5069 1.13165 7.50334 1.13184 7.50293L1.13281 7.50195L1.13379 7.5C1.13457 7.49864 1.13571 7.49686 1.13672 7.49512C1.13882 7.4915 1.14146 7.48665 1.14453 7.48145C1.1508 7.47082 1.15965 7.45728 1.16992 7.44043C1.19068 7.40638 1.21964 7.35969 1.25684 7.30273C1.33116 7.18894 1.43807 7.03179 1.5791 6.84668C1.86041 6.47746 2.281 5.98776 2.8418 5.49707C3.96331 4.51585 5.68789 3.5 8 3.5ZM8 5.5C6.31235 5.5 5.0367 6.23425 4.1582 7.00293C3.74911 7.36094 3.43565 7.72056 3.21777 8C3.43565 8.27944 3.74911 8.63906 4.1582 8.99707C5.0367 9.76575 6.31235 10.5 8 10.5C9.68765 10.5 10.9633 9.76575 11.8418 8.99707C12.2507 8.63927 12.5634 8.27937 12.7812 8C12.5634 7.72063 12.2507 7.36073 11.8418 7.00293C10.9633 6.23425 9.68765 5.5 8 5.5Z"/>
        <path d="M2 8L1.13184 8.49707L0.848633 8L1.13184 7.50293L2 8Z"/>
        <path d="M15.1514 8L14.8682 8.49707L14 8L14.8682 7.50293L15.1514 8Z"/>
        <path d="M8 7C8.55228 7 9 7.44772 9 8C9 8.55228 8.55228 9 8 9C7.44772 9 7 8.55228 7 8C7 7.44772 7.44772 7 8 7Z"/>
    </g>
</svg>
