<svg viewBox="0 0 16 16" fill="none" xmlns="http://www.w3.org/2000/svg">
    <g id="base">
        <path d="M8 6C8.55228 6 9 6.44772 9 7V8.58594L9.29297 8.29297C9.68349 7.90245 10.3165 7.90247 10.707 8.29297C11.0976 8.68349 11.0976 9.31651 10.707 9.70703L8.70703 11.707C8.3165 12.0975 7.68349 12.0975 7.29297 11.707L5.29297 9.70703C4.90248 9.31651 4.90248 8.68349 5.29297 8.29297C5.68349 7.90245 6.3165 7.90247 6.70703 8.29297L7 8.58594V7C7 6.44773 7.44774 6.00002 8 6Z"/>
        <path fill-rule="evenodd" clip-rule="evenodd" d="M11 1C12.6569 1 14 2.34315 14 4V12C14 13.6569 12.6569 15 11 15H5C3.34315 15 2 13.6569 2 12V4C2 2.34315 3.34315 1 5 1H11ZM5 3C4.44772 3 4 3.44772 4 4V12C4 12.5523 4.44772 13 5 13H11C11.5523 13 12 12.5523 12 12V4C12 3.44772 11.5523 3 11 3H5Z"/>
    </g>
</svg>
