<svg viewBox="0 0 16 16" fill="none" xmlns="http://www.w3.org/2000/svg">
    <path id="base" d="M8.51862 3.15723C10.2762 1.56933 12.9898 1.62258 14.6837 3.31641C16.4321 5.06489 16.4321 7.89996 14.6837 9.64844L11.1661 13.166C10.292 14.04 9.14436 14.4775 8.00007 14.4775C6.85577 14.4775 5.7081 14.0401 4.83405 13.166L1.31647 9.64844C-0.431998 7.89995 -0.43198 5.06489 1.31647 3.31641C3.06496 1.56792 5.90002 1.56794 7.6485 3.31641L8.00007 3.66797L8.35163 3.31641L8.51862 3.15723ZM6.24128 4.72363C5.26989 3.75225 3.69508 3.75226 2.7237 4.72363C1.75233 5.69502 1.75233 7.26984 2.7237 8.24121L6.24128 11.7588C6.54225 12.0598 6.90065 12.2664 7.28132 12.3809L7.71882 10.8584C7.81969 10.5071 7.72139 10.1286 7.46296 9.87012L7.1778 9.58496C6.36995 8.77694 6.09232 7.57921 6.46198 6.49805L6.85749 5.33887L6.24128 4.72363ZM13.2764 4.72363C12.3051 3.75228 10.7302 3.75226 9.75886 4.72363L8.86725 5.61426L8.34479 7.14258C8.22095 7.50523 8.31413 7.90667 8.58503 8.17773L8.87018 8.46289C9.64026 9.23296 9.93145 10.3605 9.63093 11.4072L9.45612 12.0127C9.56129 11.9364 9.66397 11.8537 9.75886 11.7588L13.2764 8.24121C14.2478 7.26983 14.2478 5.695 13.2764 4.72363Z"/>
</svg>
