<svg viewBox="0 0 16 16" fill="none" xmlns="http://www.w3.org/2000/svg">
    <g id="base">
        <path d="M7.83984 9.51172C8.04818 9.51172 8.23251 9.5878 8.3916 9.74121C8.55257 9.89461 8.63385 10.08 8.63574 10.2959C8.63378 10.4435 8.59521 10.5781 8.51953 10.6992C8.44573 10.8184 8.34865 10.9134 8.22949 10.9854C8.11017 11.0554 7.98 11.0908 7.83984 11.0908C7.62028 11.0907 7.43154 11.0137 7.27441 10.8604C7.1195 10.7052 7.04314 10.5171 7.04492 10.2959C7.04303 10.08 7.11916 9.89461 7.27441 9.74121C7.43154 9.58787 7.62028 9.51179 7.83984 9.51172Z"/>
        <path d="M7.93066 5.10254C8.33597 5.10254 8.69842 5.16193 9.0166 5.28125C9.33465 5.39867 9.58587 5.57686 9.76953 5.81543C9.95304 6.05203 10.0448 6.34836 10.0449 6.7041C10.0449 6.93317 10.0053 7.13538 9.92578 7.30957C9.84817 7.48184 9.73869 7.63407 9.59863 7.7666C9.46045 7.89721 9.29876 8.01709 9.11328 8.125C8.97705 8.20447 8.86229 8.28693 8.76953 8.37207C8.67673 8.4554 8.60594 8.55123 8.55859 8.65918C8.5113 8.7652 8.48828 8.89447 8.48828 9.0459V9.18164H7.14746V9.0459C7.14746 8.7334 7.17146 8.48346 7.2207 8.29785C7.26991 8.11254 7.34302 7.96418 7.43945 7.85254C7.53603 7.73892 7.65479 7.6368 7.79492 7.5459C7.91601 7.46643 8.02354 7.38922 8.11816 7.31543C8.21476 7.24157 8.29078 7.16244 8.3457 7.0791C8.40233 6.99594 8.43058 6.90168 8.43066 6.7959C8.43066 6.70142 8.40853 6.61775 8.36328 6.5459C8.31791 6.47406 8.25616 6.41769 8.17871 6.37793C8.10112 6.33819 8.01453 6.31839 7.91992 6.31836C7.81765 6.31836 7.72286 6.3423 7.63574 6.38965C7.55069 6.43691 7.48169 6.50185 7.42871 6.58496C7.37757 6.66829 7.35156 6.76515 7.35156 6.875H5.89746C5.90125 6.45833 5.99506 6.11982 6.18066 5.86035C6.36626 5.59904 6.61315 5.40831 6.91992 5.28711C7.22659 5.16408 7.56345 5.10258 7.93066 5.10254Z"/>
        <path fill-rule="evenodd" clip-rule="evenodd" d="M8 1C11.866 1 15 4.13401 15 8C15 11.866 11.866 15 8 15C4.13401 15 1 11.866 1 8C1 4.13401 4.13401 1 8 1ZM8 3C5.23858 3 3 5.23858 3 8C3 10.7614 5.23858 13 8 13C10.7614 13 13 10.7614 13 8C13 5.23858 10.7614 3 8 3Z"/>
    </g>
</svg>
