<svg viewBox="0 0 16 16" fill="none" xmlns="http://www.w3.org/2000/svg">
    <g id="base">
        <path fill-rule="evenodd" clip-rule="evenodd" d="M8 8C10.2091 8 12 9.79086 12 12V13C12.5523 13 13 13.4477 13 14C13 14.5523 12.5523 15 12 15H4C3.44772 15 3 14.5523 3 14C3 13.4477 3.44771 13 4 13V12C4 9.79086 5.79086 8 8 8ZM8 10C6.89543 10 6 10.8954 6 12V13H10V12C10 10.8954 9.10457 10 8 10Z"/>
        <path d="M12 1C12.5523 1 13 1.44772 13 2C13 2.55228 12.5523 3 12 3V4C12 6.20914 10.2091 8 8 8C5.79086 8 4 6.20914 4 4V3C3.44772 3 3 2.55228 3 2C3 1.44772 3.44772 1 4 1H12Z"/>
    </g>
</svg>
