<svg viewBox="0 0 16 16" fill="none" xmlns="http://www.w3.org/2000/svg">
    <g id="base">
        <path d="M8.00977 7.5C8.56205 7.5 9.00977 7.94772 9.00977 8.5V10.5C9.00977 11.0523 8.56205 11.5 8.00977 11.5C7.45759 11.4999 7.00977 11.0522 7.00977 10.5V8.5C7.00977 7.9478 7.45759 7.50013 8.00977 7.5Z"/>
        <path d="M8.00977 4.5C8.56205 4.5 9.00977 4.94772 9.00977 5.5C9.00977 6.05228 8.56205 6.5 8.00977 6.5C7.45759 6.49987 7.00879 6.0522 7.00879 5.5C7.00879 4.9478 7.45759 4.50013 8.00977 4.5Z"/>
        <path fill-rule="evenodd" clip-rule="evenodd" d="M8 1C11.866 1 15 4.13401 15 8C15 11.866 11.866 15 8 15C4.13401 15 1 11.866 1 8C1 4.13401 4.13401 1 8 1ZM8 3C5.23858 3 3 5.23858 3 8C3 10.7614 5.23858 13 8 13C10.7614 13 13 10.7614 13 8C13 5.23858 10.7614 3 8 3Z"/>
    </g>
</svg>
