<svg viewBox="0 0 16 16" fill="none" xmlns="http://www.w3.org/2000/svg">
    <g id="base">
        <path d="M6 9C8.20914 9 10 10.7909 10 13V14H8V13C8 11.8954 7.10457 11 6 11H4C2.89543 11 2 11.8954 2 13V14H0V13C0 10.7909 1.79086 9 4 9H6Z"/>
        <path d="M12 9C14.2091 9 16 10.7909 16 13V14H14V13C14 11.8954 13.1046 11 12 11H10.583C10.2563 10.2524 9.75248 9.60032 9.12402 9.09668C9.40597 9.03368 9.69906 9 10 9H12Z"/>
        <path fill-rule="evenodd" clip-rule="evenodd" d="M11 2C12.6569 2 14 3.34315 14 5C14 6.65685 12.6569 8 11 8C9.34315 8 8 6.65685 8 5C8 3.34315 9.34315 2 11 2ZM11 4C10.4477 4 10 4.44772 10 5C10 5.55228 10.4477 6 11 6C11.5523 6 12 5.55228 12 5C12 4.44772 11.5523 4 11 4Z"/>
        <path fill-rule="evenodd" clip-rule="evenodd" d="M5 2C6.65685 2 8 3.34315 8 5C8 6.65685 6.65685 8 5 8C3.34315 8 2 6.65685 2 5C2 3.34315 3.34315 2 5 2ZM5 4C4.44772 4 4 4.44772 4 5C4 5.55228 4.44772 6 5 6C5.55228 6 6 5.55228 6 5C6 4.44772 5.55228 4 5 4Z"/>
    </g>
</svg>
