<svg viewBox="0 0 16 16" fill="none" xmlns="http://www.w3.org/2000/svg">
    <g id="base">
        <path d="M7 9C9.20914 9 11 10.7909 11 13V14H9V13C9 11.8954 8.10457 11 7 11H5C3.89543 11 3 11.8954 3 13V14H1V13C1 10.7909 2.79086 9 5 9H7Z"/>
        <path d="M13 2C13.5523 2 14 2.44772 14 3V4H15C15.5523 4 16 4.44772 16 5C16 5.55228 15.5523 6 15 6H14V7C14 7.55228 13.5523 8 13 8C12.4477 8 12 7.55228 12 7V6H11C10.4477 6 10 5.55228 10 5C10 4.44772 10.4477 4 11 4H12V3C12 2.44772 12.4477 2 13 2Z"/>
        <path fill-rule="evenodd" clip-rule="evenodd" d="M6 2C7.65685 2 9 3.34315 9 5C9 6.65685 7.65685 8 6 8C4.34315 8 3 6.65685 3 5C3 3.34315 4.34315 2 6 2ZM6 4C5.44772 4 5 4.44772 5 5C5 5.55228 5.44772 6 6 6C6.55228 6 7 5.55228 7 5C7 4.44772 6.55228 4 6 4Z"/>
    </g>
</svg>
