<svg viewBox="0 0 16 16" fill="none" xmlns="http://www.w3.org/2000/svg">
    <g id="base">
        <path d="M7 9C9.20914 9 11 10.7909 11 13V14H9V13C9 11.8954 8.10457 11 7 11H5C3.89543 11 3 11.8954 3 13V14H1V13C1 10.7909 2.79086 9 5 9H7Z"/>
        <path d="M13.293 3.29297C13.6835 2.90245 14.3165 2.90247 14.707 3.29297C15.0976 3.68349 15.0976 4.31651 14.707 4.70703L14.4141 5L14.707 5.29297C15.0976 5.68349 15.0976 6.31651 14.707 6.70703C14.3165 7.09753 13.6835 7.09755 13.293 6.70703L13 6.41406L12.707 6.70703C12.3165 7.09753 11.6835 7.09755 11.293 6.70703C10.9025 6.31651 10.9025 5.68349 11.293 5.29297L11.5859 5L11.293 4.70703C10.9025 4.31651 10.9025 3.68349 11.293 3.29297C11.6835 2.90245 12.3165 2.90247 12.707 3.29297L13 3.58594L13.293 3.29297Z"/>
        <path fill-rule="evenodd" clip-rule="evenodd" d="M6 2C7.65685 2 9 3.34315 9 5C9 6.65685 7.65685 8 6 8C4.34315 8 3 6.65685 3 5C3 3.34315 4.34315 2 6 2ZM6 4C5.44772 4 5 4.44772 5 5C5 5.55228 5.44772 6 6 6C6.55228 6 7 5.55228 7 5C7 4.44772 6.55228 4 6 4Z"/>
    </g>
</svg>
