<?xml version="1.0" encoding="UTF-8"?>
<svg xmlns="http://www.w3.org/2000/svg" viewBox="0 0 16 16" fill="none">
    <path id="base" d="M14.5085 8.86617L11.9624 10.3449L9.67887 8.01616L11.9806 5.66881L14.5085 7.13682C14.6577 7.22339 14.7818 7.34906 14.8681 7.50098C14.9545 7.6529 15 7.82562 15 8.0015C15 8.17737 14.9545 8.3501 14.8681 8.50202C14.7818 8.65394 14.6577 8.7796 14.5085 8.86617ZM1.07276 0.616757C1.02455 0.736865 0.999828 0.86553 1 0.995428V15.0069C1 15.1516 1.02924 15.2862 1.08056 15.4069L8.32756 8.0155L1.07276 0.616757ZM9.00321 7.32682L11.1198 5.16814L2.4455 0.130752C2.25958 0.0211082 2.04303 -0.0209386 1.83092 0.0114178L9.00321 7.32682ZM9.00321 8.70484L1.85691 15.9936C2.05051 16.0176 2.2545 15.9829 2.4455 15.8716L11.1016 10.8449L9.00321 8.70484Z"></path>
</svg>