<svg viewBox="0 0 16 16" fill="none" xmlns="http://www.w3.org/2000/svg">
    <path id="base" d="M1 8.99999V5.99999C1 4.34313 2.34315 2.99999 4 2.99999C4.55228 2.99999 5 3.4477 5 3.99999C5 4.51766 4.60667 4.94377 4.10254 4.9951L3.89746 5.00487C3.39333 5.0562 3 5.48231 3 5.99999V8.99999C3 9.55227 3.44772 9.99999 4 9.99999H12C12.5523 9.99999 13 9.55227 13 8.99999V5.99999C13 5.4477 12.5523 4.99999 12 4.99999H9.41406L9.70703 5.29295C10.0976 5.68348 10.0976 6.31649 9.70703 6.70702C9.31651 7.09754 8.68349 7.09754 8.29297 6.70702L6.29297 4.70702C5.90244 4.31649 5.90244 3.68348 6.29297 3.29295L8.29297 1.29295C8.68349 0.90243 9.31651 0.90243 9.70703 1.29295C10.0976 1.68348 10.0976 2.31649 9.70703 2.70702L9.41406 2.99999H12C13.6569 2.99999 15 4.34313 15 5.99999V8.99999C15 10.6568 13.6569 12 12 12H4C2.34315 12 1 10.6568 1 8.99999Z"/>
</svg>
