<svg viewBox="0 0 16 16" fill="none" xmlns="http://www.w3.org/2000/svg">
    <g id="base">
        <path d="M7.29297 2.29302C7.68349 1.90249 8.31651 1.90249 8.70703 2.29302L11.707 5.29302C12.0975 5.68354 12.0976 6.31656 11.707 6.70708C11.3165 7.09751 10.6835 7.09756 10.293 6.70708L9 5.41411V10C8.99995 10.5523 8.55225 11 8 11C7.44778 11 7.00005 10.5523 7 10V5.41411L5.70703 6.70708C5.3165 7.09751 4.68347 7.09756 4.29297 6.70708C3.90247 6.31658 3.90253 5.68355 4.29297 5.29302L7.29297 2.29302Z"/>
        <path d="M13 12C13.5523 12 14 12.4478 14 13C13.9999 13.5523 13.5523 14 13 14H3C2.44775 14 2.00005 13.5523 2 13C2 12.4478 2.44772 12 3 12H13Z"/>
    </g>
</svg>
