<svg width="16" height="16" viewBox="0 0 16 16" fill="none" xmlns="http://www.w3.org/2000/svg">
<path id="base" fill-rule="evenodd" clip-rule="evenodd" d="M10.5996 1C12.8494 1 13.9751 1.00029 14.7637 1.57324C15.0181 1.75815 15.2419 1.9819 15.4268 2.23633C15.9997 3.02492 16 4.15055 16 6.40039V9.59961C16 11.8494 15.9997 12.9751 15.4268 13.7637L15.2812 13.9482C15.1283 14.1273 14.9546 14.288 14.7637 14.4268L14.6113 14.5283C13.8297 15.0003 12.7086 15 10.5996 15H5.40039L3.91113 14.9912C2.60868 14.9644 1.82776 14.8565 1.23633 14.4268C1.04538 14.288 0.871695 14.1273 0.71875 13.9482L0.573242 13.7637C0.000293136 12.9751 4.39229e-10 11.8494 4.39229e-10 9.59961V6.40039C4.39229e-10 4.29135 -0.000290513 3.17027 0.47168 2.38867L0.573242 2.23633C0.712019 2.04538 0.87267 1.8717 1.05176 1.71875L1.23633 1.57324C1.82776 1.14354 2.60868 1.03565 3.91113 1.00879L5.40039 1H10.5996ZM5.40039 2.5C4.24206 2.5 3.49312 2.50167 2.93164 2.5625C2.39853 2.62028 2.21415 2.71641 2.11816 2.78613C1.99082 2.87865 1.87865 2.99082 1.78613 3.11816C1.71641 3.21415 1.62028 3.39853 1.5625 3.93164C1.50167 4.49312 1.5 5.24206 1.5 6.40039V9.59961C1.5 10.7579 1.50167 11.5069 1.5625 12.0684C1.62028 12.6015 1.71641 12.7859 1.78613 12.8818C1.87865 13.0092 1.99082 13.1213 2.11816 13.2139C2.21415 13.2836 2.39853 13.3797 2.93164 13.4375C3.49312 13.4983 4.24206 13.5 5.40039 13.5H5.5V2.5H5.40039ZM7 13.5H10.5996C11.7579 13.5 12.5069 13.4983 13.0684 13.4375C13.6015 13.3797 13.7859 13.2836 13.8818 13.2139C14.0092 13.1213 14.1213 13.0092 14.2139 12.8818C14.2836 12.7859 14.3797 12.6015 14.4375 12.0684C14.4983 11.5069 14.5 10.7579 14.5 9.59961V6.40039C14.5 5.24206 14.4983 4.49312 14.4375 3.93164C14.3797 3.39853 14.2836 3.21415 14.2139 3.11816C14.1213 2.99082 14.0092 2.87865 13.8818 2.78613C13.7859 2.71641 13.6015 2.62028 13.0684 2.5625C12.5069 2.50167 11.7579 2.5 10.5996 2.5H7V13.5Z" />
<path id="details" d="M7 1V15H5.40039L3.91113 14.9912C2.60868 14.9644 1.82776 14.8565 1.23633 14.4268C1.04538 14.288 0.871695 14.1273 0.71875 13.9482L0.573242 13.7637C0.000293136 12.9751 4.39229e-10 11.8494 4.39229e-10 9.59961V6.40039C4.39229e-10 4.29135 -0.000290513 3.17027 0.47168 2.38867L0.573242 2.23633C0.712019 2.04538 0.87267 1.8717 1.05176 1.71875L1.23633 1.57324C1.82776 1.14354 2.60868 1.03565 3.91113 1.00879L5.40039 1H7Z" />
</svg>
