<svg viewBox="0 0 16 16" fill="none" xmlns="http://www.w3.org/2000/svg">
    <g id="base">
        <path d="M5 4C5.55228 4 6 4.44772 6 5C6 5.55228 5.55228 6 5 6C4.44772 6 4 5.55228 4 5C4 4.44772 4.44772 4 5 4Z"/>
        <path fill-rule="evenodd" clip-rule="evenodd" d="M7.17188 1C7.96741 1.00008 8.73043 1.31637 9.29297 1.87891L14.293 6.87891C15.4643 8.05044 15.4643 9.94956 14.293 11.1211L11.1211 14.293C9.94956 15.4643 8.05044 15.4643 6.87891 14.293L1.87891 9.29297C1.31637 8.73043 1.00008 7.96742 1 7.17188V4C1 2.34315 2.34315 1 4 1H7.17188ZM4 3C3.44772 3 3 3.44772 3 4V7.17188C3.00008 7.43698 3.1055 7.69144 3.29297 7.87891L8.29297 12.8789C8.68345 13.2692 9.31654 13.2692 9.70703 12.8789L12.8789 9.70703C13.2692 9.31654 13.2692 8.68345 12.8789 8.29297L7.87891 3.29297C7.69144 3.1055 7.43698 3.00008 7.17188 3H4Z"/>
    </g>
</svg>
