<svg viewBox="0 0 16 16" fill="none" xmlns="http://www.w3.org/2000/svg">
    <g id="base">
        <path fill-rule="evenodd" clip-rule="evenodd" d="M8 1C11.866 1 15 4.13401 15 8C15 11.866 11.866 15 8 15C4.13401 15 1 11.866 1 8C1 4.13401 4.13401 1 8 1ZM8 3C5.23858 3 3 5.23858 3 8C3 10.7614 5.23858 13 8 13C10.7614 13 13 10.7614 13 8C13 5.23858 10.7614 3 8 3Z"/>
        <path d="M8.49902 4.03125C9.02633 4.09755 9.53685 4.26873 10 4.53613C10.608 4.88718 11.1128 5.392 11.4639 6C11.8149 6.60808 12 7.29785 12 8C12 8.70215 11.8149 9.39192 11.4639 10C11.1128 10.608 10.608 11.1128 10 11.4639C9.39192 11.8149 8.70215 12 8 12C7.29786 12 6.60807 11.8149 6 11.4639C5.53682 11.1964 5.13357 10.8396 4.8125 10.416C4.6458 10.196 4.72974 9.88809 4.96875 9.75L7.75 8.14453C7.9047 8.05521 8 7.88957 8 7.71094V4.5C8 4.22386 8.22504 3.99682 8.49902 4.03125Z"/>
    </g>
</svg>
