<svg viewBox="0 0 16 16" fill="none" xmlns="http://www.w3.org/2000/svg">
    <g id="base">
        <path d="M8 1C8.13243 1 8.26459 1.0052 8.39648 1.0127C8.41666 1.01382 8.4369 1.01335 8.45703 1.01465C8.47745 1.01597 8.49754 1.01898 8.51758 1.02148C9.25955 1.07661 9.98928 1.24763 10.6787 1.5332C11.528 1.88499 12.3002 2.39981 12.9502 3.0498C13.6002 3.6998 14.115 4.47204 14.4668 5.32129C14.8186 6.17057 15 7.08075 15 8C15 8.91925 14.8186 9.82943 14.4668 10.6787C14.115 11.528 13.6002 12.3002 12.9502 12.9502C12.3002 13.6002 11.528 14.115 10.6787 14.4668C9.9893 14.7524 9.25952 14.9224 8.51758 14.9775C8.4975 14.9801 8.47749 14.984 8.45703 14.9854C8.43692 14.9867 8.41664 14.9852 8.39648 14.9863C8.26457 14.9938 8.13245 15 8 15C7.84659 15 7.69419 14.9951 7.54297 14.9854C6.99183 14.9497 6.57376 14.474 6.60938 13.9229C6.645 13.3717 7.12074 12.9536 7.67188 12.9893C7.78022 12.9963 7.88962 13 8 13C8.65654 13 9.30651 12.8704 9.91309 12.6191C10.5197 12.3679 11.0709 11.9994 11.5352 11.5352C11.9994 11.0709 12.3679 10.5197 12.6191 9.91309C12.8704 9.30651 13 8.65654 13 8C13 7.34346 12.8704 6.69349 12.6191 6.08691C12.3679 5.48029 11.9994 4.92914 11.5352 4.46484C11.0709 4.00055 10.5197 3.63213 9.91309 3.38086C9.30651 3.12964 8.65654 3 8 3C7.88962 3 7.78022 3.00374 7.67188 3.01074C7.12074 3.04636 6.645 2.62828 6.60938 2.07715C6.57376 1.52601 6.99183 1.05026 7.54297 1.01465C7.69419 1.00488 7.84659 1 8 1Z"/>
        <path d="M2.8291 11.2041C3.24419 10.8399 3.87596 10.8818 4.24023 11.2969C4.3843 11.461 4.53899 11.6157 4.70312 11.7598C5.11817 12.124 5.16009 12.7558 4.7959 13.1709C4.43159 13.586 3.79888 13.627 3.38379 13.2627C3.15454 13.0615 2.93853 12.8455 2.7373 12.6162C2.373 12.2011 2.41401 11.5684 2.8291 11.2041Z"/>
        <path d="M2.07715 6.60938C2.62828 6.645 3.04636 7.12074 3.01074 7.67188C3.00374 7.78022 3 7.88962 3 8C3 8.11038 3.00374 8.21978 3.01074 8.32812C3.04636 8.87926 2.62828 9.355 2.07715 9.39062C1.52601 9.42624 1.05026 9.00817 1.01465 8.45703C1.00488 8.30581 1 8.15341 1 8C1 7.84659 1.00488 7.69419 1.01465 7.54297C1.05026 6.99183 1.52601 6.57376 2.07715 6.60938Z"/>
        <path d="M3.38379 2.7373C3.79888 2.373 4.43159 2.41401 4.7959 2.8291C5.16009 3.24419 5.11817 3.87596 4.70312 4.24023C4.53899 4.3843 4.3843 4.53899 4.24023 4.70312C3.87596 5.11817 3.24419 5.16009 2.8291 4.7959C2.41401 4.43159 2.373 3.79888 2.7373 3.38379C2.93853 3.15454 3.15454 2.93853 3.38379 2.7373Z"/>
    </g>
</svg>
