<svg viewBox="0 0 16 16" fill="none" xmlns="http://www.w3.org/2000/svg">
    <g id="base">
        <path d="M5 5C5 5.55228 4.55228 6 4 6C3.44772 6 3 5.55228 3 5C3 4.44772 3.44772 4 4 4C4.55228 4 5 4.44772 5 5Z"/>
        <path d="M12 4C12.5523 4 13 4.44772 13 5C13 5.55228 12.5523 6 12 6H7C6.44772 6 6 5.55228 6 5C6 4.44772 6.44772 4 7 4H12Z"/>
        <path fill-rule="evenodd" clip-rule="evenodd" d="M13 1C14.6569 1 16 2.34315 16 4V12C16 13.6569 14.6569 15 13 15H3C1.34315 15 1.09093e-07 13.6569 0 12V4C1.97578e-08 2.34315 1.34315 1 3 1H13ZM3 3C2.44772 3 2 3.44771 2 4V12C2 12.5523 2.44772 13 3 13H13C13.5523 13 14 12.5523 14 12V4C14 3.44771 13.5523 3 13 3H3Z"/>
    </g>
</svg>
